<svg width="24" height="24" viewBox="0 0 24 24" fill="none" xmlns="http://www.w3.org/2000/svg">
<path d="M18.2889 9.66L10.2501 5.03467" stroke="#F78A0E" stroke-width="1.5" stroke-linecap="round" stroke-linejoin="round"/>
<path d="M22.346 15.6102V8.39783C22.3457 8.08164 22.2622 7.77108 22.104 7.49733C21.9457 7.22358 21.7183 6.99625 21.4444 6.83815L15.1336 3.23196C14.8595 3.0737 14.5486 2.99039 14.232 2.99039C13.9155 2.99039 13.6046 3.0737 13.3305 3.23196L7.01965 6.83815C6.74582 6.99625 6.51837 7.22358 6.36013 7.49733C6.2019 7.77108 6.11843 8.08164 6.1181 8.39783V15.6102C6.11843 15.9264 6.2019 16.237 6.36013 16.5107C6.51837 16.7845 6.74582 17.0118 7.01965 17.1699L13.3305 20.7761C13.6046 20.9344 13.9155 21.0177 14.232 21.0177C14.5486 21.0177 14.8595 20.9344 15.1336 20.7761L21.4444 17.1699C21.7183 17.0118 21.9457 16.7845 22.104 16.5107C22.2622 16.237 22.3457 15.9264 22.346 15.6102Z" stroke="#F78A0E" stroke-width="1.5" stroke-linecap="round" stroke-linejoin="round"/>
<path d="M6.36151 7.46024L14.232 12.0131L22.1026 7.46024" stroke="#F78A0E" stroke-width="1.5" stroke-linecap="round" stroke-linejoin="round"/>
<path d="M14.2319 21.0916V12.004" stroke="#F78A0E" stroke-width="1.5" stroke-linecap="round" stroke-linejoin="round"/>
<path d="M3.90936 12.0131L5.84204 12.0131" stroke="#F78A0E" stroke-width="1.5" stroke-linecap="round" stroke-linejoin="round"/>
<path d="M2.45994 9.01306H5.84204" stroke="#F78A0E" stroke-width="1.5" stroke-linecap="round" stroke-linejoin="round"/>
<path d="M1.52903 15.0131H5.84204" stroke="#F78A0E" stroke-width="1.5" stroke-linecap="round" stroke-linejoin="round"/>
</svg>
