<svg width="39" height="31" viewBox="0 0 39 31" fill="none" xmlns="http://www.w3.org/2000/svg">
<path d="M14.6063 0.330198C14.5954 0.330556 14.5872 0.331733 14.582 0.333727C14.5368 0.351106 14.5296 2.62654 14.538 14.3509L14.5481 28.3474L14.9083 28.4637C15.1064 28.5277 16.5022 28.9729 18.01 29.4532C19.5179 29.9335 20.7712 30.328 20.7952 30.3301C20.8782 30.337 20.8916 28.5583 20.8919 17.5501C20.8922 10.1166 20.9057 6.49656 20.9341 6.32027C20.9571 6.17719 21.021 5.96108 21.0761 5.84001C21.3459 5.24748 21.8144 5.09245 22.4257 5.39343C22.8503 5.60245 23.1039 5.95019 23.2768 6.5604C23.3463 6.80579 23.3512 7.1106 23.3632 11.9333L23.3759 17.0461L23.531 17.1252C24.3129 17.5241 25.3557 17.7733 26.2362 17.7717C27.3262 17.7698 28.198 17.424 28.9197 16.7074C29.3109 16.319 29.5169 16.02 29.7991 15.4309C30.1317 14.7368 30.3314 13.9514 30.4206 12.9872C30.4796 12.3493 30.4474 10.7906 30.3605 10.0777C30.1786 8.58625 29.7901 7.45154 29.1107 6.42782C28.7651 5.90694 27.9541 5.08524 27.3953 4.68964C25.845 3.5922 24.1879 2.91246 20.1512 1.71823C17.9941 1.08006 14.946 0.3191 14.6063 0.330198ZM13.278 17.2688C13.2283 17.2707 12.9038 17.374 12.5237 17.5097C12.1183 17.6544 11.3903 17.9134 10.9061 18.0852C9.13223 18.7145 4.48985 20.3663 4.05784 20.5218C2.3628 21.1321 0.859858 21.9196 0.398184 22.4393C0.305312 22.5438 0.177751 22.7374 0.114689 22.8695C0.0166806 23.0748 4.1062e-08 23.1584 4.1062e-08 23.4456C-2.79746e-05 23.7472 0.0142484 23.8113 0.139394 24.0715C0.489104 24.7986 1.30518 25.347 2.74149 25.8202C4.51345 26.4039 6.47935 26.7905 8.16605 26.8869C9.7113 26.9753 11.1553 26.8994 12.7539 26.6458L13.281 26.5622L13.3079 26.2367C13.3395 25.8532 13.3184 23.3074 13.2833 23.2723C13.27 23.259 12.6576 23.466 11.9225 23.7322C10.2337 24.3438 9.74033 24.5083 9.3652 24.585C7.67587 24.9301 5.80321 24.6574 5.80321 24.0662C5.80321 23.8828 6.02531 23.6404 6.33775 23.4827C6.4693 23.4163 7.83013 22.9124 9.36183 22.363C10.8935 21.8137 12.4079 21.2691 12.7271 21.1529L13.3074 20.9417V19.1173C13.3074 18.1139 13.297 17.2825 13.2842 17.2698C13.2834 17.269 13.2813 17.2687 13.278 17.2688ZM29.2763 18.8695C28.2694 18.868 27.6135 18.8846 27.3353 18.9187C25.9244 19.0912 24.7817 19.2978 23.7532 19.5661C23.0258 19.7559 22.1311 20.0331 22.0795 20.0848C22.0399 20.1243 22.0596 23.8307 22.0995 23.8706C22.1115 23.8826 22.7676 23.6649 23.5576 23.3868C24.3476 23.1087 25.9082 22.5592 27.0255 22.1657C29.7457 21.2077 29.9625 21.1555 31.2174 21.1556C32.0315 21.1558 32.4148 21.213 32.8251 21.3957C33.39 21.6473 33.3719 22.006 32.7762 22.3613C32.5568 22.4921 32.539 22.4986 22.8363 25.9556C22.442 26.0961 22.1088 26.2216 22.0959 26.2345C22.0666 26.2637 22.0527 29.4409 22.0806 29.7072C22.0988 29.8802 22.1102 29.8991 22.1867 29.8824C22.2338 29.872 24.4607 29.0764 27.1351 28.1144C29.8096 27.1523 32.5021 26.1847 33.1185 25.964C35.4516 25.1286 36.3917 24.7679 36.8676 24.5252C37.8653 24.0166 38.4912 23.5044 38.7449 22.989C38.8689 22.7372 38.8815 22.6791 38.8801 22.3701C38.8788 22.0802 38.8617 21.9943 38.7663 21.7972C38.6089 21.4718 38.2747 21.1284 37.8229 20.8276C37.3346 20.5026 36.9358 20.3168 36.0801 20.0159C34.422 19.4327 33.3313 19.1796 31.5373 18.9617C30.8945 18.8836 30.5973 18.8715 29.2763 18.8695Z" fill="#F78A0E"/>
</svg>
